# File created by Blade
# Date/Time:  Wed Jan 21 18:34:34 2015
#---------------------------------------------------------
:version 1.10
:name HOM
:units
  mass 1.0
  length 1.000000
  angle deg
:documentation
     Acclaim Skeleton File
:root
   axis xyz
   order TX TY TZ RX RY RZ
   position 0.000000 0.000000 0.000000
   orientation 0 0 0
:bonedata
   begin
      id 1
      name RightUpLeg_dum
      direction -1.000000 0.000000 0.000000
      length 3.693983
      axis 0.0 0.0 0.0 xyz
   end
   begin
      id 2
      name LeftUpLeg_dum
      direction 1.000000 0.000000 0.000000
      length 3.693983
      axis 0.0 0.0 0.0 xyz
   end
   begin
      id 3
      name Spine_dum
      direction 0.000000 1.000000 0.000000
      length 2.392956
      axis 0.0 0.0 0.0 xyz
   end
   begin
      id 4
      name RightUpLeg
      direction 0.000000 -1.000000 0.000000
      length 15.795667
      axis 0.0 0.0 0.0 xyz
      dof rx ry rz
   end
   begin
      id 5
      name RightLeg
      direction 0.000000 -1.000000 0.000000
      length 14.766989
      axis 0.0 0.0 0.0 xyz
      dof rx ry rz
   end
   begin
      id 6
      name RightFoot
      direction 0.000000 -0.258819 0.965926
      length 4.962790
      axis 15.0 0.0 0.0 xyz
      dof rx ry rz
   end
   begin
      id 7
      name RightToeBase
      direction 0.000000 0.000000 1.000000
      length 2.952750
      axis 0.0 0.0 0.0 xyz
      dof rx ry rz
   end
   begin
      id 8
      name LeftUpLeg
      direction 0.000000 -1.000000 0.000000
      length 15.795667
      axis 0.0 0.0 0.0 xyz
      dof rx ry rz
   end
   begin
      id 9
      name LeftLeg
      direction 0.000000 -1.000000 0.000000
      length 14.766989
      axis 0.0 0.0 0.0 xyz
      dof rx ry rz
   end
   begin
      id 10
      name LeftFoot
      direction 0.000000 -0.258819 0.965926
      length 4.962790
      axis 15.0 0.0 0.0 xyz
      dof rx ry rz
   end
   begin
      id 11
      name LeftToeBase
      direction 0.000000 0.000000 1.000000
      length 2.952750
      axis 0.0 0.0 0.0 xyz
      dof rx ry rz
   end
   begin
      id 12
      name Spine
      direction 0.000000 1.000000 0.000000
      length 0.000000
      axis 0.0 0.0 0.0 xyz
      dof rx ry rz
   end
   begin
      id 13
      name Spine_dum1
      direction 0.000000 1.000000 0.000000
      length 13.207411
      axis 0.0 0.0 0.0 xyz
   end
   begin
      id 14
      name Spine_dum2
      direction 0.000000 1.000000 0.000000
      length 13.207411
      axis 0.0 0.0 0.0 xyz
   end
   begin
      id 15
      name Spine_dum3
      direction 0.000000 1.000000 0.000000
      length 19.250100
      axis 0.0 0.0 0.0 xyz
   end
   begin
      id 16
      name RightShoulder
      direction -1.000000 0.000000 0.000000
      length 8.140465
      axis 0.0 0.0 90.0 xyz
      dof rx ry rz
   end
   begin
      id 17
      name RightArm
      direction -1.000000 0.000000 0.000000
      length 10.649840
      axis 0.0 0.0 90.0 xyz
      dof rx ry rz
   end
   begin
      id 18
      name RightForeArm
      direction -1.000000 0.000000 0.000000
      length 8.304624
      axis 0.0 0.0 90.0 xyz
      dof ry rz rx
   end
   begin
      id 19
      name RightHand
      direction -1.000000 0.000000 0.000000
      length 0.000000
      axis 0.0 0.0 90.0 xyz
      dof rx ry rz
   end
   begin
      id 20
      name RightHand_dum1
      direction -1.000000 0.000000 0.000000
      length 3.937000
      axis 0.0 0.0 90.0 xyz
   end
   begin
      id 21
      name RightHand_dum2
      direction 0.000000 0.000000 0.000000
      length 0.000000
      axis 0.0 0.0 90.0 xyz
   end
   begin
      id 22
      name RightHandThumb1
      direction 0.000000 0.000000 1.000000
      length 3.937000
      axis 0.0 0.0 90.0 xyz
      dof rx rz ry
   end
   begin
      id 23
      name LeftShoulder
      direction 1.000000 0.000000 0.000000
      length 8.140465
      axis 0.0 0.0 -90.0 xyz
      dof rx ry rz
   end
   begin
      id 24
      name LeftArm
      direction 1.000000 0.000000 0.000000
      length 10.649840
      axis 0.0 0.0 -90.0 xyz
      dof rx ry rz
   end
   begin
      id 25
      name LeftForeArm
      direction 1.000000 0.000000 0.000000
      length 8.304624
      axis 0.0 0.0 -90.0 xyz
      dof ry rz rx
   end
   begin
      id 26
      name LeftHand
      direction 1.000000 0.000000 0.000000
      length 0.000000
      axis 0.0 0.0 -90.0 xyz
      dof rx ry rz
   end
   begin
      id 27
      name LeftHand_dum1
      direction 1.000000 0.000000 0.000000
      length 3.937000
      axis 0.0 0.0 -90.0 xyz
   end
   begin
      id 28
      name LeftHand_dum2
      direction 0.000000 0.000000 0.000000
      length 0.000000
      axis 0.0 0.0 -90.0 xyz
   end
   begin
      id 29
      name LeftHandThumb1
      direction 0.000000 0.000000 1.000000
      length 3.937000
      axis 0.0 0.0 -90.0 xyz
      dof rx rz ry
   end
   begin
      id 30
      name Head
      direction 0.000000 1.000000 0.000000
      length 4.527550
      axis 0.0 0.0 0.0 xyz
      dof rx ry rz
   end
:hierarchy
   begin
      root RightUpLeg_dum LeftUpLeg_dum Spine_dum
      RightUpLeg_dum RightUpLeg
      LeftUpLeg_dum LeftUpLeg
      Spine_dum Spine
      RightUpLeg RightLeg
      RightLeg RightFoot
      RightFoot RightToeBase
      LeftUpLeg LeftLeg
      LeftLeg LeftFoot
      LeftFoot LeftToeBase
      Spine Spine_dum1 Spine_dum2 Spine_dum3
      Spine_dum1 RightShoulder
      Spine_dum2 LeftShoulder
      Spine_dum3 Head
      RightShoulder RightArm
      RightArm RightForeArm
      RightForeArm RightHand
      RightHand RightHand_dum1 RightHand_dum2
      RightHand_dum2 RightHandThumb1
      LeftShoulder LeftArm
      LeftArm LeftForeArm
      LeftForeArm LeftHand
      LeftHand LeftHand_dum1 LeftHand_dum2
      LeftHand_dum2 LeftHandThumb1
   end

# File created by Blade
# Date/Time:  Wed Jan 21 18:34:41 2015
# Frame Rate: 120.000 fps
#------------------------------------------------------
:FULLY-SPECIFIED
:DEGREES
76
root 1.876499 32.740012 -5.980606 43.374905 4.904378 1.263387
RightUpLeg -34.344318 -11.032956 5.821038
RightLeg -3.370530 -0.000000 0.000000
RightFoot -10.609662 -2.632539 18.086143
RightToeBase 13.544052 -0.000000 -0.000000
LeftUpLeg -37.047321 5.525792 -2.812739
LeftLeg 1.988665 -0.000000 -0.000000
LeftFoot -9.272975 -3.525087 -7.468385
LeftToeBase 7.179902 -0.000000 -0.000000
Spine -48.949885 -0.468993 -1.159936
RightShoulder -19.212451 12.363461 -45.023193
RightArm 0.230199 -10.854035 42.771229
RightForeArm 7.953789 -0.000000 -7.178169
RightHand 7.389419 -0.000000 9.189022
RightHandThumb1 -24.326973 -0.000000 -32.862282
LeftShoulder -11.578450 2.603839 39.949936
LeftArm 19.290107 -18.854255 -41.175504
LeftForeArm 18.194837 -0.000000 -3.721457
LeftHand -26.046817 0.000000 -1.640562
LeftHandThumb1 -26.253704 0.000000 33.147579
Head 7.375536 -3.909489 5.374296
77
root 1.876936 32.738315 -5.975567 43.384270 4.869662 1.272162
RightUpLeg -34.336988 -10.972727 5.762216
RightLeg -3.393016 -0.000000 0.000000
RightFoot -10.612360 -2.680075 18.076923
RightToeBase 13.475657 -0.000000 -0.000000
LeftUpLeg -37.026324 5.588917 -2.876955
LeftLeg 1.947733 -0.000000 -0.000000
LeftFoot -9.271373 -3.563537 -7.513371
LeftToeBase 7.275351 -0.000000 -0.000000
Spine -48.962394 -0.478978 -1.155888
RightShoulder -19.216711 12.356781 -45.022140
RightArm 0.270437 -10.896580 42.727149
RightForeArm 7.943892 -0.000000 -7.115206
RightHand 7.400430 -0.000000 9.142719
RightHandThumb1 -24.326973 -0.000000 -32.862282
LeftShoulder -11.572353 2.618924 39.936487
LeftArm 19.317776 -18.808282 -41.195834
LeftForeArm 18.178058 -0.000000 -3.773709
LeftHand -25.977086 -0.000000 -1.622552
LeftHandThumb1 -26.253704 0.000000 33.147579
Head 7.344581 -3.913936 5.400343
78
root 1.876837 32.735739 -5.971710 43.394495 4.840384 1.280689
RightUpLeg -34.330703 -10.916056 5.710271
RightLeg -3.399997 -0.000000 0.000000
RightFoot -10.701146 -2.744331 18.145307
RightToeBase 13.633433 -0.000000 -0.000000
LeftUpLeg -37.008388 5.635913 -2.924719
LeftLeg 1.910643 -0.000000 -0.000000
LeftFoot -9.269261 -3.594862 -7.537219
LeftToeBase 7.257485 -0.000000 -0.000000
Spine -48.974025 -0.496979 -1.146067
RightShoulder -19.211701 12.340203 -45.029645
RightArm 0.299925 -10.950504 42.698397
RightForeArm 7.976095 -0.000000 -7.045256
RightHand 7.396148 -0.000000 9.118566
RightHandThumb1 -24.326973 -0.000000 -32.862282
LeftShoulder -11.555225 2.632847 39.932429
LeftArm 19.327199 -18.790738 -41.224162
LeftForeArm 18.160576 -0.000000 -3.791306
LeftHand -25.928381 -0.000000 -1.674577
LeftHandThumb1 -26.253704 0.000000 33.147579
Head 7.312084 -3.948131 5.427538
79
root 1.876287 32.733630 -5.968692 43.405849 4.808686 1.291341
RightUpLeg -34.341338 -10.912793 5.700857
RightLeg -3.405783 -0.000000 0.000000
RightFoot -10.731717 -2.759801 18.127821
RightToeBase 13.650291 -0.000000 -0.000000
LeftUpLeg -36.994141 5.683120 -2.970441
LeftLeg 1.875222 -0.000000 -0.000000
LeftFoot -9.275097 -3.639842 -7.555113
LeftToeBase 7.296936 -0.000000 -0.000000
Spine -48.985783 -0.520735 -1.136822
RightShoulder -19.212120 12.316172 -45.026498
RightArm 0.348105 -10.982568 42.663861
RightForeArm 7.968384 -0.000000 -6.993093
RightHand 7.512643 -0.000000 9.068866
RightHandThumb1 -24.326973 -0.000000 -32.862282
LeftShoulder -11.532735 2.604401 39.931089
LeftArm 19.310635 -18.777277 -41.248148
LeftForeArm 18.165043 -0.000000 -3.809172
LeftHand -25.952433 -0.000000 -1.668576
LeftHandThumb1 -26.253704 0.000000 33.147579
Head 7.291580 -3.981675 5.470538
80
root 1.875126 32.731425 -5.967251 43.424913 4.773595 1.314931
RightUpLeg -34.346332 -10.893396 5.672359
RightLeg -3.434937 -0.000000 0.000000
RightFoot -10.789536 -2.783031 18.182114
RightToeBase 13.784857 -0.000000 -0.000000
LeftUpLeg -36.986201 5.695258 -3.006373
LeftLeg 1.837119 -0.000000 -0.000000
LeftFoot -9.272160 -3.654458 -7.623317
LeftToeBase 7.325337 -0.000000 -0.000000
Spine -49.000158 -0.562968 -1.128203
RightShoulder -19.203382 12.318472 -45.033380
RightArm 0.376298 -11.028136 42.639702
RightForeArm 7.988831 -0.000000 -6.942687
RightHand 7.571742 0.000000 9.030546
RightHandThumb1 -24.326973 -0.000000 -32.862282
LeftShoulder -11.516169 2.611493 39.916840
LeftArm 19.319271 -18.737201 -41.252506
LeftForeArm 18.135475 -0.000000 -3.844001
LeftHand -25.947587 -0.000000 -1.629228
LeftHandThumb1 -26.253704 0.000000 33.147579
Head 7.272965 -4.012531 5.499037
81
root 1.871793 32.729504 -5.965849 43.445347 4.731732 1.327137
RightUpLeg -34.366088 -10.908406 5.691685
RightLeg -3.456831 -0.000000 0.000000
RightFoot -10.828318 -2.784122 18.191059
RightToeBase 13.889583 -0.000000 -0.000000
LeftUpLeg -36.984997 5.731801 -3.043355
LeftLeg 1.804561 -0.000000 -0.000000
LeftFoot -9.240057 -3.670371 -7.629982
LeftToeBase 7.257989 -0.000000 -0.000000
Spine -49.015960 -0.606183 -1.112410
RightShoulder -19.196763 12.315326 -45.036980
RightArm 0.419915 -11.060269 42.623723
RightForeArm 7.985849 0.000000 -6.902048
RightHand 7.652349 0.000000 9.029669
RightHandThumb1 -24.326973 -0.000000 -32.862282
LeftShoulder -11.518263 2.615272 39.906489
LeftArm 19.355927 -18.805616 -41.289025
LeftForeArm 18.198770 -0.000000 -3.915460
LeftHand -25.948177 -0.000000 -1.597953
LeftHandThumb1 -26.253704 0.000000 33.147579
Head 7.258359 -4.040957 5.548693
